<svg xmlns="http://www.w3.org/2000/svg" viewBox="0 0 326.38 326.38"><defs><style>.cls-1{fill:#badabd;}.cls-2{fill:#5c6f5e;}</style></defs><g id="Layer_2" data-name="Layer 2"><g id="Layer_1-2" data-name="Layer 1"><path class="cls-1" d="M163.19,0A163.19,163.19,0,1,0,326.38,163.19,163.19,163.19,0,0,0,163.19,0Zm.8,263.86A100.28,100.28,0,1,1,264.27,163.58,100.28,100.28,0,0,1,164,263.86Z"/><path class="cls-2" d="M164,263.86A100.28,100.28,0,0,1,164,63.3V0h-.8a163.19,163.19,0,0,0,0,326.38h.8Z"/><path class="cls-2" d="M122.51,168.11a11.72,11.72,0,0,1-4.46-3.76,11,11,0,0,1-2-5.41l0-.28h4.58l0,.21a7,7,0,0,0,1.35,3.32,7.71,7.71,0,0,0,2.9,2.34,9.15,9.15,0,0,0,4,.86,8.92,8.92,0,0,0,4.47-1.09,7.69,7.69,0,0,0,3-3,8.86,8.86,0,0,0,1.09-4.44v0a8.56,8.56,0,0,0-1.1-4.36,7.89,7.89,0,0,0-3-3,8.68,8.68,0,0,0-4.4-1.09,10.7,10.7,0,0,0-3.5.56,8,8,0,0,0-2.86,1.69,13.13,13.13,0,0,0-.95,1,7.78,7.78,0,0,0-.81,1.19h-4.12l1.92-21.3H140v4.14H122.5l-1.27,12.55h.1a8.46,8.46,0,0,1,3.55-2.87,12.17,12.17,0,0,1,4.94-1,12.52,12.52,0,0,1,6.38,1.6,11.75,11.75,0,0,1,4.38,4.39,12.61,12.61,0,0,1,1.59,6.38v.05a12.68,12.68,0,0,1-1.71,6.6,12,12,0,0,1-4.71,4.49,15.43,15.43,0,0,1-13.24.25Z"/><path class="cls-2" d="M152.69,167.12a14.67,14.67,0,0,1-4.7-6.67,29,29,0,0,1-1.63-10.25v0A28.93,28.93,0,0,1,148,139.9a14.67,14.67,0,0,1,4.7-6.67,12.76,12.76,0,0,1,14.73,0,14.72,14.72,0,0,1,4.73,6.67,28.92,28.92,0,0,1,1.64,10.25v0a29,29,0,0,1-1.64,10.25,14.72,14.72,0,0,1-4.73,6.67,12.67,12.67,0,0,1-14.73,0Zm12.24-3.56a11.66,11.66,0,0,0,3.1-5.26,27,27,0,0,0,1.08-8.1v0a26.86,26.86,0,0,0-1.08-8.09,11.53,11.53,0,0,0-3.1-5.24,7.38,7.38,0,0,0-9.75,0,11.6,11.6,0,0,0-3.08,5.24,27.56,27.56,0,0,0-1.06,8.09v0a27.72,27.72,0,0,0,1.06,8.1,11.73,11.73,0,0,0,3.08,5.26,7.35,7.35,0,0,0,9.75,0Z"/><path class="cls-2" d="M180.52,147.42a10.66,10.66,0,0,1-2-6.85v0a10.59,10.59,0,0,1,2-6.83,7.38,7.38,0,0,1,11.09,0,10.64,10.64,0,0,1,2,6.83v0a10.72,10.72,0,0,1-2,6.85,7.36,7.36,0,0,1-11.09,0Zm8.46-2.24a8.7,8.7,0,0,0,1-4.61v0a8.62,8.62,0,0,0-1-4.59,3.43,3.43,0,0,0-5.85,0,8.62,8.62,0,0,0-1,4.59v0a8.7,8.7,0,0,0,1,4.61,3.42,3.42,0,0,0,5.85,0Zm-5.48,23.68,24-37.35h4.19l-23.91,37.35Zm20-2.22a10.62,10.62,0,0,1-2-6.84v0a10.57,10.57,0,0,1,2-6.83,7.37,7.37,0,0,1,11.08,0,10.62,10.62,0,0,1,2,6.83v0a10.67,10.67,0,0,1-2,6.84,7.33,7.33,0,0,1-11.08,0ZM212,164.4a8.66,8.66,0,0,0,1-4.6v0a8.6,8.6,0,0,0-1-4.59,3.43,3.43,0,0,0-5.85,0,8.59,8.59,0,0,0-1,4.59v0a8.66,8.66,0,0,0,1,4.6,3.41,3.41,0,0,0,5.85,0Z"/><path class="cls-2" d="M137.91,193.81a4.54,4.54,0,0,1-1.92-1.43,3.89,3.89,0,0,1-.81-2.18v-.14H137l0,.14a2.35,2.35,0,0,0,.6,1.28,3.28,3.28,0,0,0,1.31.83,5.67,5.67,0,0,0,1.88.29,5.16,5.16,0,0,0,1.85-.3,2.6,2.6,0,0,0,1.2-.87,2.15,2.15,0,0,0,.43-1.32h0a2,2,0,0,0-.68-1.56,5.05,5.05,0,0,0-2.2-.92l-1.65-.36a6.68,6.68,0,0,1-3.2-1.48,3.49,3.49,0,0,1-1-2.62h0a3.62,3.62,0,0,1,.68-2.15,4.36,4.36,0,0,1,1.84-1.46,6.52,6.52,0,0,1,2.69-.53,6.26,6.26,0,0,1,2.58.52,4.6,4.6,0,0,1,1.82,1.44,4,4,0,0,1,.77,2.13v.16h-1.85l0-.14a2.68,2.68,0,0,0-.55-1.3,2.91,2.91,0,0,0-1.16-.82,4.39,4.39,0,0,0-1.65-.28A4.61,4.61,0,0,0,139,181a2.68,2.68,0,0,0-1.14.83,2,2,0,0,0-.4,1.25h0a1.85,1.85,0,0,0,.68,1.49,4.93,4.93,0,0,0,2.14.9l1.64.36a7,7,0,0,1,3.29,1.48,3.59,3.59,0,0,1,1,2.68h0a3.92,3.92,0,0,1-.66,2.27,4.25,4.25,0,0,1-1.89,1.49,7.31,7.31,0,0,1-2.91.52A7.44,7.44,0,0,1,137.91,193.81Z"/><path class="cls-2" d="M148.35,179.26h1.84v14.8h-1.84Zm.92,7.87h3.88a3.43,3.43,0,0,0,2.46-.82,3,3,0,0,0,.87-2.28v0a3,3,0,0,0-.87-2.29,3.43,3.43,0,0,0-2.46-.82h-3.88v-1.64h4.35a5,5,0,0,1,2.46.59,4.35,4.35,0,0,1,1.68,1.67,4.94,4.94,0,0,1,.6,2.47v0a5,5,0,0,1-.6,2.48,4.37,4.37,0,0,1-1.68,1.68,4.93,4.93,0,0,1-2.46.61h-4.35Z"/><path class="cls-2" d="M160.48,179.26h9.16v1.66h-7.32v4.75h7v1.64h-7v5.08h7.32v1.67h-9.16Z"/><path class="cls-2" d="M172.08,179.26h1.79l9.71,13.93-2.34-2.25h.82V179.26h1.83v14.8h-1.8l-9.71-13.94,2.34,2.26h-.82v11.68h-1.82Z"/><path class="cls-2" d="M190.5,180.92h-4.66v-1.66H197v1.66h-4.66v13.14H190.5Z"/></g></g></svg>