<svg xmlns="http://www.w3.org/2000/svg" viewBox="0 0 326.38 326.38"><defs><style>.cls-1{fill:#badabd;}.cls-2{fill:#5c6f5e;}</style></defs><g id="Layer_2" data-name="Layer 2"><g id="Layer_1-2" data-name="Layer 1"><path class="cls-1" d="M163.19,0A163.19,163.19,0,1,0,326.38,163.19,163.19,163.19,0,0,0,163.19,0Zm.8,263.86A100.28,100.28,0,1,1,264.27,163.58,100.28,100.28,0,0,1,164,263.86Z"/><path class="cls-2" d="M83.26,223.08A100.29,100.29,0,0,1,164,63.3V0h-.8A163.18,163.18,0,0,0,44.52,275.2Z"/><path class="cls-2" d="M134.34,141.84v-.1H114.23V137.6H139v4.32l-16.62,33h-4.89Z"/><path class="cls-2" d="M149.42,173.21a14.71,14.71,0,0,1-4.7-6.68,29,29,0,0,1-1.63-10.25v-.05A29,29,0,0,1,144.72,146a14.59,14.59,0,0,1,4.7-6.66,12.76,12.76,0,0,1,14.73,0,14.64,14.64,0,0,1,4.73,6.66,29,29,0,0,1,1.64,10.25v.05a29,29,0,0,1-1.64,10.25,14.75,14.75,0,0,1-4.73,6.68,12.72,12.72,0,0,1-14.73,0Zm12.24-3.56a11.64,11.64,0,0,0,3.1-5.27,26.93,26.93,0,0,0,1.08-8.1v-.05a26.91,26.91,0,0,0-1.08-8.09,11.64,11.64,0,0,0-3.1-5.24,7.41,7.41,0,0,0-9.75,0,11.71,11.71,0,0,0-3.08,5.24,27.6,27.6,0,0,0-1.06,8.09v.05a27.63,27.63,0,0,0,1.06,8.1,11.71,11.71,0,0,0,3.08,5.27,7.35,7.35,0,0,0,9.75,0Z"/><path class="cls-2" d="M177.25,153.5a10.62,10.62,0,0,1-2-6.84v0a10.57,10.57,0,0,1,2-6.83,7.38,7.38,0,0,1,11.09,0,10.62,10.62,0,0,1,2,6.83v0a10.67,10.67,0,0,1-2,6.84,7.36,7.36,0,0,1-11.09,0Zm8.46-2.24a8.66,8.66,0,0,0,1-4.6v0a8.57,8.57,0,0,0-1-4.59,3.42,3.42,0,0,0-5.85,0,8.58,8.58,0,0,0-1,4.59v0a8.66,8.66,0,0,0,1,4.6,3.41,3.41,0,0,0,5.85,0Zm-5.48,23.68,24-37.34h4.19l-23.91,37.34Zm20-2.21a10.63,10.63,0,0,1-2-6.85v0a10.57,10.57,0,0,1,2-6.83,7.37,7.37,0,0,1,11.08,0,10.62,10.62,0,0,1,2,6.83v0a10.68,10.68,0,0,1-2,6.85,7.35,7.35,0,0,1-11.08,0Zm8.46-2.24a8.68,8.68,0,0,0,1-4.61v0a8.58,8.58,0,0,0-1-4.59,3.42,3.42,0,0,0-5.85,0,8.57,8.57,0,0,0-1,4.59v0a8.67,8.67,0,0,0,1,4.61,3.41,3.41,0,0,0,5.85,0Z"/><path class="cls-2" d="M135.91,199.89a4.54,4.54,0,0,1-1.93-1.42,4,4,0,0,1-.8-2.18v-.15H135l0,.15a2.4,2.4,0,0,0,.61,1.27,3.11,3.11,0,0,0,1.31.83,5.41,5.41,0,0,0,1.88.3,4.89,4.89,0,0,0,1.84-.31,2.69,2.69,0,0,0,1.21-.86,2.17,2.17,0,0,0,.42-1.33h0a1.94,1.94,0,0,0-.67-1.55,5.16,5.16,0,0,0-2.21-.93l-1.64-.36a6.59,6.59,0,0,1-3.2-1.48,3.44,3.44,0,0,1-1-2.62h0a3.64,3.64,0,0,1,.67-2.15,4.52,4.52,0,0,1,1.85-1.45,6.52,6.52,0,0,1,2.69-.53,6.1,6.1,0,0,1,2.58.52,4.43,4.43,0,0,1,1.82,1.44,3.84,3.84,0,0,1,.76,2.13l0,.15h-1.85l0-.14a2.65,2.65,0,0,0-.55-1.29,2.82,2.82,0,0,0-1.16-.82,4.42,4.42,0,0,0-1.65-.29,4.57,4.57,0,0,0-1.73.3,2.6,2.6,0,0,0-1.14.83,2,2,0,0,0-.41,1.25h0a1.87,1.87,0,0,0,.69,1.49,4.94,4.94,0,0,0,2.13.9l1.64.36a6.86,6.86,0,0,1,3.3,1.48,3.55,3.55,0,0,1,1,2.67h0a3.92,3.92,0,0,1-.66,2.28,4.25,4.25,0,0,1-1.89,1.49,7.53,7.53,0,0,1-2.91.52A7.43,7.43,0,0,1,135.91,199.89Z"/><path class="cls-2" d="M146.35,185.35h1.84v14.79h-1.84Zm.92,7.87h3.87a3.48,3.48,0,0,0,2.47-.82,3,3,0,0,0,.87-2.29v0a3,3,0,0,0-.87-2.28,3.48,3.48,0,0,0-2.47-.82h-3.87v-1.64h4.35a4.92,4.92,0,0,1,2.46.59,4.3,4.3,0,0,1,1.67,1.66,4.87,4.87,0,0,1,.61,2.47v0a4.88,4.88,0,0,1-.61,2.48,4.37,4.37,0,0,1-1.67,1.69,4.93,4.93,0,0,1-2.46.6h-4.35Z"/><path class="cls-2" d="M158.48,185.35h9.16V187h-7.32v4.74h6.94v1.65h-6.94v5.08h7.32v1.66h-9.16Z"/><path class="cls-2" d="M170.07,185.35h1.8l9.71,13.93L179.24,197h.82V185.35h1.83v14.79h-1.8l-9.71-13.93,2.34,2.25h-.82v11.68h-1.83Z"/><path class="cls-2" d="M188.5,187h-4.67v-1.66H195V187h-4.66v13.13H188.5Z"/></g></g></svg>