<svg xmlns="http://www.w3.org/2000/svg" width="236.103" height="236" viewBox="0 0 236.103 236">
  <g id="Group_23" data-name="Group 23" transform="translate(-452.897 -478)">
    <g id="Ring_Chart2" data-name="Ring Chart2" transform="translate(-111.603 30.5)">
      <path id="Path_23" data-name="Path 23" d="M0-118A118,118,0,0,1,112.225-36.464,118,118,0,0,1,69.359,95.464a118,118,0,0,1-138.717,0L-52.9,72.812a90,90,0,0,0,105.8,0A90,90,0,0,0,85.6-27.812,90,90,0,0,0,0-90Z" transform="translate(682.5 565.5)" fill="#5c6f5e"/>
      <path id="Path_24" data-name="Path 24" d="M-69.359,95.464A118,118,0,0,1-118,0,118,118,0,0,1-69.359-95.464L-52.9-72.812A90,90,0,0,0-90,0,90,90,0,0,0-52.9,72.812Z" transform="translate(682.5 565.5)" fill="#b0bfc7"/>
      <path id="Path_25" data-name="Path 25" d="M-69.359-95.464A118,118,0,0,1,0-118v28A90,90,0,0,0-52.9-72.812Z" transform="translate(682.5 565.5)" fill="#b9d9bd"/>
    </g>
    <text id="_September_475" data-name="



September
$475" transform="translate(453 478)" fill="#6f7070" font-size="18" font-family="SF Pro" font-weight="600"><tspan x="118" y="17"></tspan><tspan x="118" y="38"></tspan><tspan x="118" y="59"></tspan><tspan x="118" y="80"></tspan><tspan x="71.436" y="101">September</tspan><tspan font-size="46"><tspan x="61.466" y="149">$475</tspan></tspan></text>
  </g>
</svg>
